<svg width="20" height="20" viewBox="0 0 20 20" fill="none" xmlns="http://www.w3.org/2000/svg">
<g clip-path="url(#clip0_1_159)">
<path d="M20 10C20 15.5225 15.5225 20 10 20C4.47747 20 0 15.5225 0 10C0 4.47747 4.47747 0 10 0C15.5237 0 20 4.47747 20 10Z" fill="#2081E2"/>
<path d="M4.93371 10.336L4.97687 10.2682L7.57827 6.19867C7.61627 6.13907 7.70567 6.14525 7.73442 6.20996C8.16902 7.18396 8.54402 8.39527 8.36833 9.14938C8.29333 9.45965 8.08787 9.87987 7.85669 10.2682C7.82689 10.3247 7.79402 10.3802 7.75909 10.4337C7.74265 10.4583 7.71491 10.4727 7.68511 10.4727H5.00973C4.93782 10.4727 4.89571 10.3946 4.93371 10.336Z" fill="white"/>
<path d="M16.5291 11.0922V11.7364C16.5291 11.7734 16.5065 11.8062 16.4736 11.8206C16.2722 11.9069 15.5828 12.2234 15.2962 12.622C14.5647 13.6402 14.0058 15.096 12.7564 15.096H7.54442C5.69713 15.096 4.2002 13.5939 4.2002 11.7405V11.6809C4.2002 11.6316 4.24026 11.5915 4.2896 11.5915H7.19508C7.25262 11.5915 7.29475 11.6449 7.28962 11.7014C7.26906 11.8905 7.30399 12.0836 7.39337 12.2593C7.56599 12.6097 7.92353 12.8285 8.30984 12.8285H9.7482V11.7056H8.32626C8.25333 11.7056 8.21017 11.6213 8.25231 11.5617C8.26771 11.5381 8.28517 11.5134 8.30366 11.4857C8.43826 11.2946 8.63037 10.9977 8.82148 10.6596C8.95195 10.4316 9.07833 10.1881 9.18004 9.94356C9.20059 9.89938 9.21704 9.85418 9.23346 9.80998C9.26122 9.73191 9.28997 9.65896 9.31053 9.58602C9.33106 9.52438 9.34751 9.45964 9.36395 9.39902C9.41224 9.19149 9.4328 8.97162 9.4328 8.74353C9.4328 8.65416 9.42868 8.56067 9.42046 8.47127C9.41635 8.37367 9.40402 8.27607 9.39168 8.17847C9.38346 8.09216 9.36806 8.00689 9.35162 7.91751C9.33106 7.78702 9.30231 7.65758 9.26942 7.52709L9.25813 7.47778C9.23346 7.3884 9.21293 7.30311 9.18415 7.21373C9.103 6.93324 9.00948 6.65996 8.91086 6.40413C8.87491 6.30242 8.83379 6.20482 8.79271 6.10722C8.73208 5.96029 8.67044 5.82673 8.61395 5.70036C8.58517 5.64282 8.56051 5.59042 8.53586 5.537C8.50813 5.47638 8.47935 5.41578 8.45059 5.35822C8.43004 5.31404 8.4064 5.27296 8.38997 5.23187L8.21428 4.9072C8.18962 4.86302 8.23073 4.81062 8.279 4.82398L9.37833 5.12193H9.38142C9.38346 5.12193 9.38451 5.12296 9.38553 5.12296L9.53039 5.16302L9.68964 5.20822L9.7482 5.22467V4.57124C9.7482 4.25582 10.001 4 10.3133 4C10.4694 4 10.6112 4.06369 10.7129 4.16747C10.8146 4.27124 10.8784 4.41302 10.8784 4.57124V5.54111L10.9955 5.57398C11.0047 5.57707 11.014 5.58118 11.0222 5.58733C11.051 5.60891 11.092 5.64078 11.1444 5.6798C11.1856 5.71269 11.2297 5.75276 11.2832 5.79384C11.389 5.87913 11.5153 5.98907 11.654 6.11542C11.691 6.14729 11.727 6.18016 11.7599 6.21304C11.9386 6.37947 12.139 6.57469 12.3301 6.79044C12.3835 6.85104 12.4359 6.91269 12.4893 6.97742C12.5428 7.04318 12.5993 7.10791 12.6486 7.17264C12.7133 7.25893 12.7832 7.34831 12.8438 7.44182C12.8726 7.486 12.9054 7.5312 12.9332 7.57538C13.0112 7.69353 13.0801 7.8158 13.1458 7.93804C13.1736 7.99456 13.2023 8.0562 13.227 8.11682C13.2999 8.28018 13.3575 8.44662 13.3945 8.61307C13.4058 8.64902 13.414 8.68807 13.4181 8.723V8.7312C13.4304 8.78053 13.4345 8.83293 13.4386 8.88636C13.4551 9.05689 13.4469 9.22744 13.4099 9.39902C13.3945 9.47198 13.3739 9.5408 13.3493 9.61376C13.3246 9.68362 13.3 9.75656 13.2681 9.8254C13.2065 9.9682 13.1335 10.111 13.0472 10.2446C13.0195 10.2939 12.9866 10.3463 12.9537 10.3956C12.9178 10.448 12.8808 10.4973 12.8479 10.5456C12.8027 10.6073 12.7544 10.672 12.7051 10.7295C12.6609 10.7901 12.6157 10.8508 12.5664 10.9042C12.4975 10.9853 12.4318 11.0624 12.363 11.1364C12.3219 11.1847 12.2777 11.234 12.2325 11.2782C12.1883 11.3275 12.1431 11.3716 12.102 11.4127C12.0331 11.4816 11.9756 11.535 11.9273 11.5792L11.8143 11.683C11.7979 11.6973 11.7763 11.7056 11.7537 11.7056H10.8784V12.8285H11.9797C12.2263 12.8285 12.4606 12.7412 12.6496 12.5809C12.7143 12.5244 12.9969 12.2799 13.3308 11.911C13.3421 11.8987 13.3565 11.8895 13.3729 11.8854L16.415 11.0059C16.4715 10.9894 16.5291 11.0326 16.5291 11.0922Z" fill="white"/>
</g>
<defs>
<clipPath id="clip0_1_159">
<rect width="20" height="20" fill="white"/>
</clipPath>
</defs>
</svg>
